<svg xmlns="http://www.w3.org/2000/svg" width="448" height="356" viewBox="0 0 448 356">
  <path fill="#186FDD" d="M442,36 L6,36 C2.6862915,36 4.05812251e-16,33.3137085 0,30 L0,6 C-4.05812251e-16,2.6862915 2.6862915,0 6,0 L442,0 C445.313708,0 448,2.6862915 448,6 L448,30 C448,33.3137085 445.313708,36 442,36 Z M442,196 L6,196 C2.6862915,196 4.05812251e-16,193.313708 0,190 L0,166 C-4.05812251e-16,162.686292 2.6862915,160 6,160 L442,160 C445.313708,160 448,162.686292 448,166 L448,190 C448,193.313708 445.313708,196 442,196 Z M442,356 L6,356 C2.6862915,356 4.05812251e-16,353.313708 0,350 L0,326 C-4.05812251e-16,322.686292 2.6862915,320 6,320 L442,320 C445.313708,320 448,322.686292 448,326 L448,350 C448,353.313708 445.313708,356 442,356 Z"/>
</svg>
