<svg xmlns="http://www.w3.org/2000/svg" width="69" height="64" viewBox="0 0 69 64">
  <g fill="#054B8B">
    <path d="M65.1,45.2 L50.5,33.9 L51.9,41.7 L61.9,49.4 C63.8,50.8 64.3,53.4 63.1,55.5 C61.9,57.5 59.4,58.4 57.3,57.5 L57.2,57.5 L45.4,52.6 C44.6,53.2 43.7,53.7 42.7,54.1 L38.9,55.7 L55.3,62.5 C56.5,63 57.8,63.3 59.1,63.3 C60.2,63.3 61.3,63.1 62.3,62.8 C64.6,62 66.5,60.4 67.7,58.3 C68.9,56.2 69.3,53.7 68.8,51.4 C68.3,48.8 67,46.6 65.1,45.2 Z"/>
    <path d="M48.3,37.6 L44.6,9.6 C44.3,7.2 43.1,5 41.3,3.4 C39.5,1.8 37.1,0.9 34.7,0.9 C32.3,0.9 29.9,1.8 28,3.4 C26.2,5 25,7.2 24.7,9.6 L21.8,31.6 L4.2,45.2 C2.3,46.7 1,48.8 0.5,51.2 C-1.33226763e-15,53.5 0.4,56 1.6,58.1 C2.8,60.2 4.7,61.8 7,62.6 C8,63 9.1,63.1 10.2,63.1 C11.5,63.1 12.8,62.8 14,62.3 L40.1,51.5 C45.7,49.3 49.1,43.5 48.3,37.6 Z M30,10.3 C30.3,8 32.3,6.2 34.7,6.2 C37.1,6.2 39,8 39.3,10.3 L41.5,27.2 C37.3,24.6 31.9,24.6 27.7,27.2 L30,10.3 Z M12.1,57.4 C9.9,58.3 7.4,57.4 6.2,55.4 C5,53.4 5.5,50.8 7.4,49.3 L29.8,32.1 C32.7,29.9 36.7,29.9 39.5,32.1 L42.5,34.4 L43,38.2 C43.5,41.8 41.5,45.2 38.1,46.6 L34.6,48 L31.1,46.6 C28,45.3 26.1,42.3 26.2,39.1 L21.4,42.8 C22.4,46.2 24.6,49.1 27.8,50.9 L12.1,57.4 Z"/>
  </g>
</svg>
