<svg xmlns="http://www.w3.org/2000/svg" xmlns:xlink="http://www.w3.org/1999/xlink" width="1397" height="710" viewBox="0 0 1397 710">
  <defs>
    <rect id="bg-a" width="1399" height="947"/>
  </defs>
  <g fill="none" fill-rule="evenodd" transform="translate(-1)">
    <mask id="bg-b" fill="#fff">
      <use xlink:href="#bg-a"/>
    </mask>
    <use fill="#FFF" xlink:href="#bg-a"/>
    <g mask="url(#bg-b)">
      <g transform="translate(0 378)">
        <path fill="#65C8E6" d="M230,73.2994828 L312.495223,15.5282262 C336.20627,-1.07657702 368.110873,0.301237302 390.302141,18.8883522 L502.278457,112.678245 L566.510066,61.4886114 C589.479011,43.1834206 621.959314,42.8618417 645.28619,60.7086696 L713.213547,112.678245 L962.109497,21.0550953 C980.977563,14.1094154 1002.01284,16.4341024 1018.90893,27.3322108 L1151.22672,112.678245 L1374,112.678245 L1374,269 L230,269 L230,73.2994828 Z"/>
        <path fill="#71DCFD" d="M0,75.3829922 L115.202123,9.44033519 C136.502402,-2.75212185 162.899127,-1.68976524 183.150713,12.1749787 L332.969897,114.744951 L425.084492,54.7403406 C445.959251,41.1422591 472.827911,40.893552 493.95081,54.1028863 L590.92286,114.744951 L810.561683,10.9332731 C826.605361,3.35027306 845.077274,2.76891719 861.56604,9.32804235 L1126.57008,114.744951 L1235.41644,64.4627518 C1252.37055,56.6306987 1271.8999,56.5948929 1288.88263,64.364725 L1399,114.744951 L1399,271 L0,271 L0,75.3829922 Z"/>
      </g>
    </g>
    <g mask="url(#bg-b)">
      <g transform="translate(839 -94)">
        <polygon fill="#69A4D5" points="268.043 262 285.957 262 295 744 259 744"/>
        <g transform="rotate(105 190.795 220.557)">
          <path fill="#3073AB" d="M206.114736,124.259774 C217.18311,132.827573 222.717298,151.913225 222.717298,181.516729 C222.717298,229.609424 217.18311,288.219971 206.114736,357.34837 C195.046361,288.219971 189.512173,229.609424 189.512173,181.516729 C189.512173,151.913225 195.046361,132.827573 206.114736,124.259774 Z"/>
          <path fill="#3073AB" d="M302.510544,-43.0413761 C313.578919,-34.473577 319.113106,-15.3879254 319.113106,14.2155787 C319.113106,62.3082733 313.578919,120.91882 302.510544,190.04722 C291.442169,120.91882 285.907982,62.3082733 285.907982,14.2155787 C285.907982,-15.3879254 291.442169,-34.473577 302.510544,-43.0413761 Z" transform="rotate(-120 302.51 73.503)"/>
          <path fill="#3073AB" d="M109.263379,-43.2893177 C120.331754,-34.7215186 125.865941,-15.635867 125.865941,13.9676371 C125.865941,62.0603318 120.331754,120.670879 109.263379,189.799279 C98.195004,120.670879 92.6608166,62.0603318 92.6608166,13.9676371 C92.6608166,-15.635867 98.195004,-34.7215186 109.263379,-43.2893177 Z" transform="rotate(120 109.263 73.255)"/>
        </g>
      </g>
    </g>
    <g mask="url(#bg-b)">
      <g transform="translate(742 266)">
        <polygon fill="#69A4D5" points="133.019 137 140.981 137 145 352 129 352"/>
        <g transform="rotate(135 98.752 107.184)">
          <path fill="#3073AB" d="M93.0512411,55.5350946 C97.9943988,59.3642786 100.465978,67.8941788 100.465978,81.1247951 C100.465978,102.618737 97.9943988,128.813395 93.0512411,159.708769 C88.1080834,128.813395 85.6365046,102.618737 85.6365046,81.1247951 C85.6365046,67.8941788 88.1080834,59.3642786 93.0512411,55.5350946 Z"/>
          <path fill="#3073AB" d="M136.101796,-19.2363692 C141.044954,-15.4071853 143.516533,-6.8772851 143.516533,6.35333126 C143.516533,27.847273 141.044954,54.0419309 136.101796,84.9373051 C131.158639,54.0419309 128.68706,27.847273 128.68706,6.35333126 C128.68706,-6.8772851 131.158639,-15.4071853 136.101796,-19.2363692 Z" transform="rotate(-120 136.102 32.85)"/>
          <path fill="#3073AB" d="M49.7972371,-19.3471811 C54.7403948,-15.5179971 57.2119737,-6.98809697 57.2119737,6.24251939 C57.2119737,27.7364611 54.7403948,53.9311191 49.7972371,84.8264932 C44.8540795,53.9311191 42.3825006,27.7364611 42.3825006,6.24251939 C42.3825006,-6.98809697 44.8540795,-15.5179971 49.7972371,-19.3471811 Z" transform="rotate(120 49.797 32.74)"/>
        </g>
      </g>
    </g>
    <g mask="url(#bg-b)">
      <g transform="translate(0 386)">
        <g transform="translate(715 106)">
          <polygon fill="#1E7984" points="24 108 89 108 56.5 0"/>
          <polygon fill="#00566B" points="0 108 47 108 23.5 30"/>
        </g>
        <polygon fill="#1E7984" points="1133 178.731 1170.476 178.731 1151.738 116.946"/>
        <polygon fill="#00566B" points="18.524 88.163 72 88.163 45.262 0"/>
        <path fill="#1AC885" d="M34,82 L200.324667,82 C223.744849,82 245.363871,94.567458 256.953347,114.919091 L256.953347,114.919091 C268.542822,135.270725 290.161844,147.838183 313.582026,147.838183 L467.059687,147.838183 C477.648471,147.838183 487.934496,144.304872 496.288143,137.798034 L496.288143,137.798034 C504.641789,131.291196 514.927814,127.757884 525.516598,127.757884 L619.249439,127.757884 C650.096484,127.757884 678.870721,143.288108 695.800225,169.074385 L695.800225,169.074385 C712.729728,194.860663 741.503966,210.390886 772.351011,210.390886 L1067.85471,210.390886 C1079.38538,210.390886 1089.98887,204.072399 1095.47661,193.931341 L1095.47661,193.931341 C1100.96435,183.790282 1111.56783,177.471795 1123.0985,177.471795 L1234.40951,177.471795 C1264.92808,177.471795 1293.7761,163.535673 1312.74548,139.628655 L1312.76741,139.601024 C1331.73679,115.694006 1360.58481,101.757884 1391.10338,101.757884 L1430,101.757884 L1430,561 L34,561 L34,82 Z"/>
        <g transform="translate(970 142)">
          <path fill="#1E7984" d="M24.7450825,27.1488303 C30.1678017,18.3597544 39.8663819,12.5045872 50.928382,12.5045872 C59.1751835,12.5045872 66.6642221,15.7587785 72.1887601,21.0567701 C76.9433785,17.3633393 82.9107156,15.1651376 89.3899204,15.1651376 C91.4905183,15.1651376 93.5373139,15.3961897 95.5064243,15.8343386 C101.941678,6.28097887 112.839022,0 125.198939,0 C137.761036,0 148.81232,6.48814473 155.203657,16.3057664 C158.075532,15.5612288 161.08714,15.1651376 164.190981,15.1651376 C183.967756,15.1651376 200,31.2459193 200,51.0825688 C200,70.9192183 183.967756,87 164.190981,87 C151.628884,87 140.5776,80.5118553 134.186263,70.6942336 C131.314389,71.4387712 128.30278,71.8348624 125.198939,71.8348624 C118.098522,71.8348624 111.480779,69.7620313 105.914376,66.1867552 C101.275764,69.5719043 95.5653394,71.5688073 89.3899204,71.5688073 C82.9107156,71.5688073 76.9433785,69.3706056 72.1887601,65.6771748 C66.6642221,70.9751665 59.1751835,74.2293578 50.928382,74.2293578 C46.110159,74.2293578 41.5506001,73.1185324 37.4903724,71.1382775 C33.646687,73.7608206 29.0044531,75.293578 24.005305,75.293578 C10.7475412,75.293578 0,64.5134984 0,51.2155963 C0,37.9176943 10.7475412,27.1376147 24.005305,27.1376147 C24.2527901,27.1376147 24.4994004,27.1413711 24.7450825,27.1488303 Z"/>
          <path fill="#00566B" d="M39.0965928,45.0233884 C43.2987203,38.2411835 50.8243324,33.7215686 59.4090136,33.7215686 C65.7390639,33.7215686 71.4932895,36.1789208 75.7638593,40.1887571 C79.4620488,37.2899077 84.1266483,35.5607843 89.1964286,35.5607843 C90.8983338,35.5607843 92.5545784,35.7556424 94.1439311,36.1241965 C99.1499808,28.8053106 107.581285,24 117.138605,24 C126.820284,24 135.346454,28.9311767 140.32695,36.4111661 C142.522036,35.8558696 144.821258,35.5607843 147.189626,35.5607843 C162.548871,35.5607843 175,47.9712755 175,63.2803922 C175,78.5895088 162.548871,91 147.189626,91 C137.507947,91 128.981777,86.0688233 124.001282,78.5888339 C121.806195,79.1441304 119.506974,79.4392157 117.138605,79.4392157 C111.488095,79.4392157 106.231178,77.7595436 101.843013,74.8738074 C98.2795762,77.4169052 93.9133753,78.9137255 89.1964286,78.9137255 C84.2648447,78.9137255 79.7166532,77.2775851 76.0684275,74.5201918 C71.7688539,78.7018453 65.890816,81.2784314 59.4090136,81.2784314 C55.8014729,81.2784314 52.3809566,80.4802978 49.3155066,79.051524 C46.3021434,81.1190708 42.6508729,82.3294118 38.7159864,82.3294118 C28.3794325,82.3294118 20,73.9773277 20,63.6745098 C20,53.3716919 28.3794325,45.0196078 38.7159864,45.0196078 C38.8431554,45.0196078 38.9700282,45.020872 39.0965928,45.0233884 Z"/>
        </g>
        <g transform="translate(359 100)">
          <polygon fill="#1E7984" points="0 78 47 78 23.5 0"/>
          <polygon fill="#00566B" points="43 78 77 78 60 22"/>
        </g>
        <polygon fill="#00566B" points="1149 195.028 1191.476 195.028 1170.238 125"/>
        <polygon fill="#00566B" points="928 213.028 970.476 213.028 949.238 143"/>
        <path fill="#00566B" d="M249.726981,164.709607 C253.847777,158.028629 261.227732,153.576471 269.646259,153.576471 C275.853792,153.576471 281.496645,155.997146 285.684559,159.947134 C289.31117,157.091551 293.885487,155.388235 298.857143,155.388235 C300.526108,155.388235 302.150296,155.580185 303.708887,155.943238 C308.618046,148.73359 316.886164,144 326.258503,144 C335.752795,144 344.113942,148.857577 348.998041,156.225925 C351.150642,155.678916 353.405362,155.388235 355.727891,155.388235 C370.789861,155.388235 383,167.613495 383,182.694118 C383,197.77474 370.789861,210 355.727891,210 C346.2336,210 337.872452,205.142423 332.988354,197.774075 C330.835753,198.321084 328.581032,198.611765 326.258503,198.611765 C320.717358,198.611765 315.562188,196.957162 311.258955,194.114497 C307.764488,196.619638 303.482794,198.094118 298.857143,198.094118 C294.021009,198.094118 289.560847,196.482397 285.983232,193.766159 C281.766876,197.8854 276.002607,200.423529 269.646259,200.423529 C266.108541,200.423529 262.754228,199.637308 259.74811,198.229859 C256.79307,200.266547 253.212469,201.458824 249.353741,201.458824 C239.21725,201.458824 231,193.231397 231,183.082353 C231,172.933308 239.21725,164.705882 249.353741,164.705882 C249.478449,164.705882 249.602866,164.707128 249.726981,164.709607 Z"/>
        <path fill="#4BDC98" d="M0,82 L156.287615,82 C185.4642,82 211.670613,99.8493024 222.355387,126.999049 L224.509558,132.472745 C235.194333,159.622492 261.400745,177.471795 290.577331,177.471795 L425.460193,177.471795 C445.047509,177.471795 463.431454,168.021232 474.830256,152.092321 L474.830256,152.092321 C486.217679,136.179311 504.632246,126.797886 524.199486,126.940836 L586.582656,127.396581 C617.485414,127.622343 646.236455,143.25757 663.222432,169.074385 L669.368433,178.41563 C682.500358,198.374711 704.790068,210.390886 728.681748,210.390886 L1205.1813,210.390886 C1218.29738,210.390886 1230.67287,204.31201 1238.68994,193.931341 L1238.68994,193.931341 C1246.707,183.550671 1259.08249,177.471795 1272.19857,177.471795 L1296.80693,177.471795 C1316.32129,177.471795 1334.97538,169.439878 1348.38577,155.263431 L1399,101.757884 L1399,561 L0,561 L0,82 Z"/>
        <polygon fill="#00566B" points="1306 179.434 1368.476 179.434 1337.238 76.432"/>
        <polygon fill="#1E7984" points="77 82 109 82 93 30"/>
        <g transform="translate(1084 278)">
          <path fill="#091842" d="M33.5876202,5 C37.1958734,6.95683753 39,11.3158939 39,18.0771692 C39,29.0612724 30.6666667,40.702216 14,53 C23.4501602,40.702216 28.1752403,29.0612724 28.1752403,18.0771692 C28.1752403,11.3158939 29.9793669,6.95683753 33.5876202,5 Z" transform="rotate(-180 26.5 29)"/>
          <path fill="#091842" d="M22.6313488,2 C26.2104496,3.96282915 28,8.33523249 28,15.11721 C28,26.1349454 20.6666667,38.762542 6,53 C13.5084651,38.762542 17.2626976,26.1349454 17.2626976,15.11721 C17.2626976,8.33523249 19.052248,3.96282915 22.6313488,2 Z" transform="rotate(167 17 27.5)"/>
        </g>
        <g transform="matrix(-1 0 0 1 182 245)">
          <path fill="#091842" d="M33.5876202,5 C37.1958734,6.95683753 39,11.3158939 39,18.0771692 C39,29.0612724 30.6666667,40.702216 14,53 C23.4501602,40.702216 28.1752403,29.0612724 28.1752403,18.0771692 C28.1752403,11.3158939 29.9793669,6.95683753 33.5876202,5 Z" transform="rotate(-180 26.5 29)"/>
          <path fill="#091842" d="M22.6313488,2 C26.2104496,3.96282915 28,8.33523249 28,15.11721 C28,26.1349454 20.6666667,38.762542 6,53 C13.5084651,38.762542 17.2626976,26.1349454 17.2626976,15.11721 C17.2626976,8.33523249 19.052248,3.96282915 22.6313488,2 Z" transform="rotate(167 17 27.5)"/>
        </g>
        <g transform="translate(584 261)">
          <path fill="#091842" d="M19.7525721,4 C21.917524,5.14148856 23,7.68427145 23,11.6283487 C23,18.0357422 18,24.8262927 8,32 C13.6700961,24.8262927 16.5051442,18.0357422 16.5051442,11.6283487 C16.5051442,7.68427145 17.5876202,5.14148856 19.7525721,4 Z" transform="rotate(-180 15.5 18)"/>
          <path fill="#091842" d="M13.8276152,2 C15.9425384,3.15460538 17,5.72660735 17,9.71600589 C17,16.1970267 12.6666667,23.6250247 4,32 C8.43682028,23.6250247 10.6552304,16.1970267 10.6552304,9.71600589 C10.6552304,5.72660735 11.712692,3.15460538 13.8276152,2 Z" transform="rotate(167 10.5 17)"/>
        </g>
        <path fill="#091842" d="M49.6779811,265.981903 L49.6779811,265.981903 C56.1212745,273.543468 65.5561345,277.89952 75.4905839,277.89952 L253.767034,277.89952 C268.777484,277.89952 283.184518,271.990161 293.871593,261.44976 L293.871593,261.44976 C304.558667,250.909359 318.965701,245 333.976151,245 L494.290945,245 C509.301395,245 523.708429,250.909359 534.395503,261.44976 L534.395503,261.44976 C545.082578,271.990161 559.489612,277.89952 574.500062,277.89952 L851.311518,277.89952 C867.443662,277.89952 883.336342,281.802398 897.63336,289.275105 L906.774571,294.052995 C921.071589,301.525701 936.964269,305.42858 953.096413,305.42858 L1103.78554,305.42858 C1121.22295,305.42858 1138.32969,300.669401 1153.26177,291.66405 L1153.26177,291.66405 C1168.19385,282.658698 1185.30059,277.89952 1202.738,277.89952 L1278.96913,277.89952 C1289.509,277.89952 1299.59157,273.594542 1306.88106,265.981903 L1306.88106,265.981903 C1314.17054,258.369264 1324.25311,254.064287 1334.79298,254.064287 L1399,254.064287 L1399,561 L0,561 L4.54747351e-13,254.064287 L23.8653782,254.064287 C33.7998277,254.064287 43.2346876,258.420339 49.6779811,265.981903 Z"/>
        <polygon fill="#1AC885" points="897 212.172 1105.973 241.039 1254.21 226.606 1398 208.236 1398 129.039"/>
      </g>
    </g>
  </g>
</svg>
