<svg xmlns="http://www.w3.org/2000/svg" width="1399" height="722" viewBox="0 0 1399 722">
  <g fill="none" fill-rule="evenodd" transform="translate(0 66)">
    <path fill="#65C8E6" fill-rule="nonzero" d="M230.164403,460.335257 L312.718593,402.574561 C336.446589,385.972794 368.373997,387.350356 390.581128,405.934073 L502.637484,499.706821 L566.915005,448.526545 C589.900368,430.2247 622.403888,429.90318 645.747438,447.746746 L713.723349,499.706821 L962.797209,408.10042 C981.678762,401.15601 1002.72908,403.480272 1019.63724,414.376388 L1152.04961,499.706821 L1374.98213,499.706821 L1374.98213,656 L230.164403,656 L230.164403,460.335257 Z"/>
    <path fill="#71DCFD" fill-rule="nonzero" d="M0,462.394325 L115.284469,396.455488 C136.599973,384.263737 163.015567,385.326032 183.281628,399.189973 L333.207903,501.754003 L425.388341,441.752869 C446.278021,428.155575 473.165887,427.906883 494.303884,441.115452 L591.345249,501.754003 L811.141069,397.948339 C827.196215,390.365779 845.681332,389.784456 862.181884,396.343202 L1127.37535,501.754003 L1236.29951,451.474717 C1253.26574,443.643118 1272.80905,443.607314 1289.80392,451.376696 L1400,501.754003 L1400,658 L0,658 L0,462.394325 Z"/>
    <polygon fill="#69A4D5" fill-rule="nonzero" points="1107.834 177 1125.761 177 1134.811 659 1098.785 659"/>
    <g class="turbine-big" fill="#3073AB" fill-rule="nonzero" transform="translate(889.635)">
		<g>
			<path d="M117.356616,28.5701012 C128.432901,37.1379003 133.971045,56.2235524 133.971045,85.8270565 C133.971045,133.919752 128.432901,192.530299 117.356616,261.658698 C106.280329,192.530299 100.742185,133.919752 100.742185,85.8270565 C100.742185,56.2235524 106.280329,37.1379003 117.356616,28.5701012 Z" transform="rotate(105 117.357 145.114)"/>
			<path d="M254.106293,164.981265 C265.18258,173.549065 270.720723,192.634716 270.720723,222.23822 C270.720723,270.330915 265.18258,328.941462 254.106293,398.069862 C243.030007,328.941462 237.491864,270.330915 237.491864,222.23822 C237.491864,192.634716 243.030007,173.549065 254.106293,164.981265 Z" transform="rotate(-15 254.106 281.526)"/>
			<path d="M304.396985,-21.6168537 C315.473272,-13.0490546 321.011415,6.03659699 321.011415,35.6401011 C321.011415,83.7327959 315.473272,142.343343 304.396985,211.471743 C293.320699,142.343343 287.782555,83.7327959 287.782555,35.6401011 C287.782555,6.03659699 293.320699,-13.0490546 304.396985,-21.6168537 Z" transform="rotate(-135 304.397 94.927)"/>
		</g>
	</g>
    <polygon fill="#69A4D5" fill-rule="nonzero" points="875.644 412 883.612 412 887.634 627 871.623 627"/>
    <g class="turbine-small" fill="#3073AB" fill-rule="nonzero" transform="translate(802.573 335)">
      	<g>
			<path d="M42.5037404,-9.24354715 C47.4504314,-5.41436316 49.9237773,3.11553702 49.9237773,16.3461533 C49.9237773,37.8400952 47.4504314,64.0347531 42.5037404,94.9301271 C37.5570493,64.0347531 35.0837038,37.8400952 35.0837038,16.3461533 C35.0837038,3.11553702 37.5570493,-5.41436316 42.5037404,-9.24354715 Z" transform="rotate(135 42.504 42.843)"/>
			<path d="M64.9497115,74.0700745 C69.8964028,77.8992584 72.3697485,86.4291586 72.3697485,99.6597749 C72.3697485,121.153717 69.8964028,147.348374 64.9497115,178.243748 C60.0030212,147.348374 57.5296755,121.153717 57.5296755,99.6597749 C57.5296755,86.4291586 60.0030212,77.8992584 64.9497115,74.0700745 Z" transform="rotate(15 64.95 126.157)"/>
			<path d="M126.097946,12.6840086 C130.959066,16.5452791 133.389626,25.146655 133.389626,38.4881367 C133.389626,60.1621857 130.959066,86.5763405 126.097946,117.730601 C121.236826,86.5763405 118.806265,60.1621857 118.806265,38.4881367 C118.806265,25.146655 121.236826,16.5452791 126.097946,12.6840086 Z" transform="rotate(-105 126.098 65.207)"/>
		</g>
    </g>
    <polygon fill="#1E7984" fill-rule="nonzero" points="739.528 609 804.575 609 772.051 501"/>
    <polygon fill="#00566B" fill-rule="nonzero" points="715.511 609 762.545 609 739.028 531"/>
    <polygon fill="#1E7984" fill-rule="nonzero" points="1133.81 573.731 1171.313 573.731 1152.561 511.946"/>
    <polygon fill="#00566B" fill-rule="nonzero" points="18.537 483.163 72.051 483.163 45.294 395"/>
    <path fill="#1AC885" fill-rule="nonzero" d="M34.0243031,477 L200.475506,477 C223.913506,477 245.548975,489.567458 257.147268,509.919091 C268.74556,530.270725 290.38103,542.838183 313.819029,542.838183 L467.413453,542.838183 C478.010293,542.838183 488.304143,539.304872 496.664145,532.798034 C505.024147,526.291196 515.317997,522.757884 525.914837,522.757884 L619.718988,522.757884 C650.5895,522.757884 679.385628,538.288108 696.328012,564.074385 C713.270394,589.860663 742.066523,605.390886 772.937036,605.390886 L1068.66555,605.390886 C1080.20499,605.390886 1090.81655,599.072399 1096.30846,588.931341 C1101.80038,578.790282 1112.41192,572.471795 1123.95137,572.471795 L1235.34706,572.471795 C1265.88885,572.471795 1294.75881,558.535673 1313.74263,534.628655 C1332.74838,510.694006 1361.61835,496.757884 1392.16014,496.757884 L1400,496.757884 L1400,734 L34.0243031,734 L34.0243031,477 Z"/>
    <path fill="#1E7984" fill-rule="nonzero" d="M995.456123,564.14883 C1000.88272,555.359754 1010.58823,549.504587 1021.65814,549.504587 C1029.91083,549.504587 1037.40523,552.758778 1042.93371,558.05677 C1047.69173,554.363339 1053.66333,552.165138 1060.14717,552.165138 C1062.24927,552.165138 1064.29753,552.39619 1066.26804,552.834339 C1072.7079,543.280979 1083.61303,537 1095.98178,537 C1108.55286,537 1119.61204,543.488145 1126.00795,553.305766 C1128.88188,552.561229 1131.89564,552.165138 1135.0017,552.165138 C1154.79261,552.165138 1170.83631,568.245919 1170.83631,588.082569 C1170.83631,607.919218 1154.79261,624 1135.0017,624 C1122.43062,624 1111.37144,617.511855 1104.97553,607.694234 C1102.1016,608.438771 1099.08784,608.834862 1095.98178,608.834862 C1088.87629,608.834862 1082.25382,606.762031 1076.68344,603.186755 C1072.04151,606.571904 1066.327,608.568807 1060.14717,608.568807 C1053.66333,608.568807 1047.69173,606.370606 1042.93371,602.677175 C1037.40523,607.975167 1029.91083,611.229358 1021.65814,611.229358 C1016.83647,611.229358 1012.27365,610.118532 1008.21052,608.138277 C1004.36409,610.760821 999.718538,612.293578 994.715816,612.293578 C981.448576,612.293578 970.693352,601.513498 970.693352,588.215596 C970.693352,574.917694 981.448576,564.137615 994.715816,564.137615 C994.963478,564.137615 995.210265,564.141371 995.456123,564.14883 Z"/>
    <path fill="#00566B" fill-rule="nonzero" d="M1009.81789,582.023388 C1014.02302,575.241184 1021.55401,570.721569 1030.14483,570.721569 C1036.47941,570.721569 1042.23775,573.178921 1046.51137,577.188757 C1050.2122,574.289908 1054.88013,572.560784 1059.95354,572.560784 C1061.65666,572.560784 1063.31409,572.755642 1064.90458,573.124197 C1069.91421,565.805311 1078.35154,561 1087.91569,561 C1097.60429,561 1106.13655,565.931177 1111.12061,573.411166 C1113.31726,572.85587 1115.61813,572.560784 1117.98819,572.560784 C1133.35841,572.560784 1145.81844,584.971275 1145.81844,600.280392 C1145.81844,615.589509 1133.35841,628 1117.98819,628 C1108.29959,628 1099.76733,623.068823 1094.78327,615.588834 C1092.58661,616.14413 1090.28575,616.439216 1087.91569,616.439216 C1082.26114,616.439216 1077.00046,614.759544 1072.60916,611.873807 C1069.04318,614.416905 1064.67386,615.913725 1059.95354,615.913725 C1055.01843,615.913725 1050.46699,614.277585 1046.81615,611.520192 C1042.51351,615.701845 1036.63127,618.278431 1030.14483,618.278431 C1026.53471,618.278431 1023.11175,617.480298 1020.04411,616.051524 C1017.02859,618.119071 1013.37471,619.329412 1009.43701,619.329412 C999.09307,619.329412 990.707648,610.977328 990.707648,600.67451 C990.707648,590.371692 999.09307,582.019608 1009.43701,582.019608 C1009.56427,582.019608 1009.69124,582.020872 1009.81789,582.023388 Z"/>
    <polygon fill="#1E7984" fill-rule="nonzero" points="359.257 573 406.29 573 382.773 495"/>
    <polygon fill="#00566B" fill-rule="nonzero" points="402.287 573 436.312 573 419.3 517"/>
    <polygon fill="#00566B" fill-rule="nonzero" points="1149.821 590.028 1192.328 590.028 1171.074 520"/>
    <polygon fill="#00566B" fill-rule="nonzero" points="928.663 608.028 971.17 608.028 949.917 538"/>
    <path fill="#00566B" fill-rule="nonzero" d="M269.839001,548.576471 C276.050971,548.576471 281.697858,550.997146 285.888765,554.947134 C289.517969,552.091551 294.095555,550.388235 299.070765,550.388235 C300.740923,550.388235 302.366272,550.580185 303.925977,550.943238 C308.838645,543.73359 317.112673,539 326.491711,539 C335.99279,539 344.359913,543.857577 349.247504,551.225925 C351.401643,550.678916 353.657975,550.388235 355.982164,550.388235 C371.0549,550.388235 383.273767,562.613495 383.273767,577.694118 C383.273767,592.77474 371.0549,605 355.982164,605 C346.481086,605 338.113962,600.142423 333.226373,592.774075 C331.072233,593.321084 328.815901,593.611765 326.491711,593.611765 C320.946606,593.611765 315.787751,591.957162 311.481442,589.114497 C307.984477,591.619638 303.699722,593.094118 299.070765,593.094118 C294.231174,593.094118 289.767824,591.482397 286.187652,588.766159 C281.968282,592.8854 276.199893,595.423529 269.839001,595.423529 C266.298754,595.423529 262.942044,594.637308 259.933777,593.229859 C256.976625,595.266547 253.393464,596.458824 249.531978,596.458824 C239.388242,596.458824 231.165118,588.231397 231.165118,578.082353 C231.165118,567.933308 239.388242,559.705882 249.531978,559.705882 C254.029226,553.028629 261.414457,548.576471 269.839001,548.576471 Z"/>
    <path fill="#4BDC98" fill-rule="nonzero" d="M-4.54747351e-13,477 L156.399329,477 C185.596769,477 211.821914,494.849302 222.514326,521.999049 L224.670037,527.472745 C235.362449,554.622492 261.587593,572.471795 290.785035,572.471795 L425.76431,572.471795 C445.365627,572.471795 463.762713,563.021232 475.169663,547.092321 C486.565226,531.179311 504.992955,521.797886 524.574182,521.940836 L587.001943,522.396581 C617.92679,522.622343 646.698382,538.25757 663.696501,564.074385 L669.846895,573.41563 C682.988207,593.374711 705.293849,605.390886 729.202607,605.390886 L1206.04276,605.390886 C1219.16821,605.390886 1231.55255,599.31201 1239.57535,588.931341 C1247.59814,578.550671 1259.98248,572.471795 1273.10793,572.471795 L1297.73388,572.471795 C1317.26219,572.471795 1335.92962,564.439878 1349.34959,550.263431 L1400,496.757884 L1400,734 L-4.54747351e-13,734 L-4.54747351e-13,477 Z"/>
    <polygon fill="#00566B" fill-rule="nonzero" points="1306.934 574.434 1369.454 574.434 1338.194 471.432"/>
    <polygon fill="#1E7984" fill-rule="nonzero" points="77.055 477 109.078 477 93.066 425"/>
    <path fill="#091842" fill-rule="nonzero" d="M1118.38647,678 C1121.9973,679.956838 1123.80272,684.315894 1123.80272,691.077169 C1123.80272,702.061272 1115.46343,713.702216 1098.78485,726 C1108.24176,713.702216 1112.97022,702.061272 1112.97022,691.077169 C1112.97022,684.315894 1114.77564,679.956838 1118.38647,678 Z" transform="rotate(-180 1111.294 702)"/>
    <path fill="#091842" fill-rule="nonzero" d="M1107.42236,675 C1111.00402,676.962829 1112.79485,681.335233 1112.79485,688.11721 C1112.79485,699.134946 1105.45628,711.762542 1090.77913,726 C1098.29296,711.762542 1102.04988,699.134946 1102.04988,688.11721 C1102.04988,681.335233 1103.84071,676.962829 1107.42236,675 Z" transform="rotate(167 1101.787 700.5)"/>
    <path fill="#091842" fill-rule="nonzero" d="M162.703837,645 C166.31467,646.956838 168.120086,651.315894 168.120086,658.077169 C168.120086,669.061272 159.780796,680.702216 143.102216,693 C152.559131,680.702216 157.287589,669.061272 157.287589,658.077169 C157.287589,651.315894 159.093005,646.956838 162.703837,645 Z" transform="matrix(1 0 0 -1 0 1338)"/>
    <path fill="#091842" fill-rule="nonzero" d="M170.753315,642 C174.334974,643.962829 176.125804,648.335233 176.125804,655.11721 C176.125804,666.134946 168.787229,678.762542 154.110079,693 C161.623911,678.762542 165.380827,666.134946 165.380827,655.11721 C165.380827,648.335233 167.171656,643.962829 170.753315,642 Z" transform="scale(1 -1) rotate(-13 -5693.454 0)"/>
    <path fill="#091842" fill-rule="nonzero" d="M604.184132,660 C606.350632,661.141489 607.433881,663.684271 607.433881,667.628349 C607.433881,674.035742 602.430307,680.826293 592.423159,688 C598.097308,680.826293 600.934383,674.035742 600.934383,667.628349 C600.934383,663.684271 602.017633,661.141489 604.184132,660 Z" transform="rotate(-180 599.929 674)"/>
    <path fill="#091842" fill-rule="nonzero" d="M598.254941,658 C600.371376,659.154605 601.429593,661.726607 601.429593,665.716006 C601.429593,672.197027 597.093162,679.625025 588.420301,688 C592.860292,679.625025 595.080288,672.197027 595.080288,665.716006 C595.080288,661.726607 596.138506,659.154605 598.254941,658 Z" transform="rotate(167 594.925 673)"/>
    <path fill="#091842" fill-rule="nonzero" d="M49.7134907,661.007204 C56.1613898,668.577887 65.6029938,672.939192 75.5445443,672.939192 L253.948426,672.939192 C268.969605,672.939192 283.386937,667.022707 294.081651,656.469596 C304.776364,645.916485 319.193696,640 334.214876,640 L494.644262,640 C509.665442,640 524.082774,645.916485 534.777487,656.469596 C545.472201,667.022707 559.889533,672.939192 574.910713,672.939192 L851.920032,672.939192 C868.063708,672.939192 883.967748,676.846776 898.274985,684.328494 L907.42273,689.112146 C921.729968,696.593862 937.634008,700.501448 953.777683,700.501448 L1104.57452,700.501448 C1122.0244,700.501448 1139.14336,695.73653 1154.08612,686.72032 C1169.02887,677.704109 1186.14784,672.939192 1203.59771,672.939192 L1279.88333,672.939192 C1290.43074,672.939192 1300.52051,668.629023 1307.81521,661.007204 C1315.1099,653.385385 1325.19968,649.075217 1335.74709,649.075217 L1400,649.075217 L1400,734 L-2.27373675e-13,734 L-2.27373675e-13,649.075217 L23.8824371,649.075217 C33.8239877,649.075217 43.2655916,653.436522 49.7134907,661.007204 Z"/>
    <polygon fill="#1AC885" fill-rule="nonzero" points="897.641 607.133 1107.181 636 1255.82 621.567 1400 603.197 1400 524"/>
  </g>

  <style>
	.turbine-small > g {
		transform-origin: 78px 78px;
		animation: spin 50s linear infinite;
	}

	.turbine-big > g {
		transform-origin: 225px 173px;
		animation: spin 80s linear infinite;
	}

	@keyframes spin {
		from { transform: rotate(0deg); }
		to { transform: rotate(360deg); }
	}
</style>
</svg>
