<svg height="722" viewBox="0 0 1399 722" width="1399" xmlns="http://www.w3.org/2000/svg"><g fill="none" transform="translate(0 -12)"><path d="m230 460.335257 82.495223-57.760696c23.711047-16.601767 55.61565-15.224205 77.806918 3.359512l111.976316 93.772748 64.231609-51.180276c22.968945-18.301845 55.449248-18.623365 78.776124-.779799l67.927357 51.960075 248.89595-91.606401c18.868066-6.94441 39.903343-4.620148 56.799433 6.275968l132.31779 85.330433h222.77328v156.293179h-1144z" fill="#65c8e6"/><path d="m0 462.394325 115.202123-65.938837c21.300279-12.191751 47.697004-11.129456 67.94859 2.734485l149.819184 102.56403 92.114595-60.001134c20.874759-13.597294 47.743419-13.845986 68.866318-.637417l96.97205 60.638551 219.638823-103.805664c16.043678-7.58256 34.515591-8.163883 51.004357-1.605137l265.00404 105.410801 108.84636-50.279286c16.95411-7.831599 36.48346-7.867403 53.46619-.098021l110.11737 50.377307v156.245997h-1399z" fill="#71dcfd"/><path d="m1107.043 177h17.914l9.043 482h-36z" fill="#69a4d5"/><path d="m1006.27279 28.5701012c11.06837 8.5677991 16.60256 27.6534512 16.60256 57.2569553 0 48.0926955-5.53419 106.7032425-16.60256 175.8316415-11.068376-69.128399-16.602564-127.738946-16.602564-175.8316415 0-29.6035041 5.534188-48.6891562 16.602564-57.2569553z" fill="#3073ab" transform="matrix(-.25881905 .96592583 -.96592583 -.25881905 1406.884977 -789.312812)"/><path d="m1142.92479 164.981265c11.06837 8.5678 16.60256 27.653451 16.60256 57.256955 0 48.092695-5.53419 106.703242-16.60256 175.831642-11.06838-69.1284-16.60256-127.738947-16.60256-175.831642 0-29.603504 5.53418-48.689155 16.60256-57.256955z" fill="#3073ab" transform="matrix(.96592583 -.25881905 .25881905 .96592583 -33.920066 305.403523)"/><path d="m1193.17956-21.6168537c11.06837 8.5677991 16.60256 27.65345069 16.60256 57.2569548 0 48.0926948-5.53419 106.7032419-16.60256 175.8316419-11.06838-69.1284-16.60256-127.7389471-16.60256-175.8316419 0-29.60350411 5.53418-48.6891557 16.60256-57.2569548z" fill="#3073ab" transform="matrix(-.70710678 -.70710678 .70710678 -.70710678 1969.762144 1005.756195)"/><path d="m875.019 412h7.962l4.019 215h-16z" fill="#69a4d5"/><path d="m844.473381 325.756453c4.943157 3.829184 7.414736 12.359084 7.414736 25.5897 0 21.493942-2.471579 47.6886-7.414736 78.583974-4.943158-30.895374-7.414737-57.090032-7.414737-78.583974 0-13.230616 2.471579-21.760516 7.414737-25.5897z" fill="#3073ab" transform="matrix(-.70710678 .70710678 -.70710678 -.70710678 1708.780932 47.885763)"/><path d="m866.903319 409.070075c4.943158 3.829183 7.414737 12.359084 7.414737 25.5897 0 21.493942-2.471579 47.688599-7.414737 78.583973-4.943157-30.895374-7.414736-57.090031-7.414736-78.583973 0-13.230616 2.471579-21.760517 7.414736-25.5897z" fill="#3073ab" transform="matrix(.96592583 .25881905 -.25881905 .96592583 148.895218 -208.657463)"/><path d="m928.007876 348.120468c4.943158 3.829184 7.414736 12.359084 7.414736 25.5897 0 21.493942-2.471578 47.6886-7.414736 78.583974-4.943158-30.895374-7.414737-57.090032-7.414737-78.583974 0-13.230616 2.471579-21.760516 7.414737-25.5897z" fill="#3073ab" transform="matrix(-.25881905 -.96592583 .96592583 -.25881905 781.623867 1400.175088)"/><path d="m739 609h65l-32.5-108z" fill="#1e7984"/><path d="m715 609h47l-23.5-78z" fill="#00566b"/><path d="m1133 573.731h37.476l-18.738-61.785z" fill="#1e7984"/><path d="m18.524 483.163h53.476l-26.738-88.163z" fill="#00566b"/><path d="m34 477h166.33231c23.421258 0 45.041273 12.567458 56.631282 32.919091 11.590007 20.351634 33.210023 32.919092 56.631281 32.919092h153.484713c10.589271 0 20.875768-3.533311 29.229799-10.040149 8.35403-6.506838 18.640528-10.04015 29.229798-10.04015h93.737148c30.848463 0 59.624022 15.530224 76.554304 41.316501 16.930281 25.786278 45.705841 41.316501 76.554303 41.316501h295.517282c11.5312 0 22.13517-6.318487 27.62316-16.459545 5.488-10.141059 16.09196-16.459546 27.62316-16.459546h111.31613c30.51997 0 59.36932-13.936122 78.33957-37.84314 18.99218-23.934649 47.84153-37.870771 78.3615-37.870771h7.83426v237.242116h-1365z" fill="#1ac885"/><path d="m994.745082 564.14883c5.422718-8.789076 15.121298-14.644243 26.183298-14.644243 8.2468 0 15.73584 3.254191 21.26038 8.552183 4.75462-3.693431 10.72196-5.891632 17.20116-5.891632 2.1006 0 4.14739.231052 6.1165.669201 6.43526-9.55336 17.3326-15.834339 29.69252-15.834339 12.5621 0 23.61338 6.488145 30.00472 16.305766 2.87187-.744537 5.88348-1.140628 8.98732-1.140628 19.77678 0 35.80902 16.080781 35.80902 35.917431 0 19.836649-16.03224 35.917431-35.80902 35.917431-12.5621 0-23.61338-6.488145-30.00472-16.305766-2.87187.744537-5.88348 1.140628-8.98732 1.140628-7.10042 0-13.71816-2.072831-19.28456-5.648107-4.63862 3.385149-10.34904 5.382052-16.52446 5.382052-6.4792 0-12.44654-2.198201-17.20116-5.891632-5.52454 5.297992-13.01358 8.552183-21.26038 8.552183-4.81822 0-9.37778-1.110826-13.43801-3.091081-3.84368 2.622544-8.485917 4.155301-13.485065 4.155301-13.257764 0-24.005305-10.78008-24.005305-24.077982s10.747541-24.077981 24.005305-24.077981c.247485 0 .494095.003756.739777.011215z" fill="#1e7984"/><path d="m1009.09659 582.023388c4.20213-6.782204 11.72774-11.301819 20.31242-11.301819 6.33005 0 12.08428 2.457352 16.35485 6.467188 3.69819-2.898849 8.36279-4.627973 13.43257-4.627973 1.7019 0 3.35815.194858 4.9475.563413 5.00605-7.318886 13.43735-12.124197 22.99468-12.124197 9.68167 0 18.20784 4.931177 23.18834 12.411166 2.19509-.555296 4.49431-.850382 6.86268-.850382 15.35924 0 27.81037 12.410491 27.81037 27.719608s-12.45113 27.719608-27.81037 27.719608c-9.68168 0-18.20785-4.931177-23.18835-12.411166-2.19508.555296-4.49431.850382-6.86267.850382-5.65052 0-10.90743-1.679672-15.2956-4.565409-3.56343 2.543098-7.92963 4.039918-12.64658 4.039918-4.93159 0-9.47978-1.63614-13.128-4.393533-4.29958 4.181653-10.17761 6.758239-16.65942 6.758239-3.60754 0-7.02805-.798133-10.0935-2.226907-3.01337 2.067547-6.66464 3.277888-10.59952 3.277888-10.336557 0-18.71599-8.352084-18.71599-18.654902s8.379433-18.654902 18.71599-18.654902c.12717 0 .25404.001264.3806.00378z" fill="#00566b"/><path d="m359 573h47l-23.5-78z" fill="#1e7984"/><path d="m402 573h34l-17-56z" fill="#00566b"/><path d="m1149 590.028h42.476l-21.238-70.028z" fill="#00566b"/><path d="m928 608.028h42.476l-21.238-70.028z" fill="#00566b"/><path d="m269.646259 548.576471c6.207533 0 11.850386 2.420675 16.0383 6.370663 3.626611-2.855583 8.200928-4.558899 13.172584-4.558899 1.668965 0 3.293153.19195 4.851744.555003 4.909159-7.209648 13.177277-11.943238 22.549616-11.943238 9.494292 0 17.855439 4.857577 22.739538 12.225925 2.152601-.547009 4.407321-.83769 6.72985-.83769 15.06197 0 27.272109 12.22526 27.272109 27.305883 0 15.080622-12.210139 27.305882-27.272109 27.305882-9.494291 0-17.855439-4.857577-22.739537-12.225925-2.152601.547009-4.407322.83769-6.729851.83769-5.541145 0-10.696315-1.654603-14.999548-4.497268-3.494467 2.505141-7.776161 3.979621-12.401812 3.979621-4.836134 0-9.296296-1.611721-12.873911-4.327959-4.216356 4.119241-9.980625 6.65737-16.336973 6.65737-3.537718 0-6.892031-.786221-9.898149-2.19367-2.95504 2.036688-6.535641 3.228965-10.394369 3.228965-10.136491 0-18.353741-8.227427-18.353741-18.376471 0-10.149045 8.21725-18.376471 18.353741-18.376471 4.494036-6.677253 11.873991-11.129411 20.292518-11.129411z" fill="#00566b"/><path d="m0 477h156.287615c29.176585 0 55.382998 17.849302 66.067772 44.999049l2.154171 5.473696c10.684775 27.149747 36.891187 44.99905 66.067773 44.99905h134.882862c19.587316 0 37.971261-9.450563 49.370063-25.379474 11.387423-15.91301 29.80199-25.294435 49.36923-25.151485l62.38317.455745c30.902758.225762 59.653799 15.860989 76.639776 41.677804l6.146001 9.341245c13.131925 19.959081 35.421635 31.975256 59.313315 31.975256h476.499552c13.11608 0 25.49157-6.078876 33.50864-16.459545 8.01706-10.38067 20.39255-16.459546 33.50863-16.459546h24.60836c19.51436 0 38.16845-8.031917 51.57884-22.208364l50.61423-53.505547v237.242116h-1399z" fill="#4bdc98"/><path d="m1306 574.434h62.476l-31.238-103.002z" fill="#00566b"/><path d="m77 477h32l-16-52z" fill="#1e7984"/><g fill="#091842"><path d="m1117.58762 678c3.60825 1.956838 5.41238 6.315894 5.41238 13.077169 0 10.984103-8.33333 22.625047-25 34.922831 9.45016-12.297784 14.17524-23.938728 14.17524-34.922831 0-6.761275 1.80413-11.120331 5.41238-13.077169z" transform="matrix(-1 0 0 -1 2221 1404)"/><path d="m1106.63135 675c3.5791 1.962829 5.36865 6.335233 5.36865 13.11721 0 11.017736-7.33333 23.645332-22 37.88279 7.50847-14.237458 11.2627-26.865054 11.2627-37.88279 0-6.781977 1.78955-11.154381 5.36865-13.11721z" transform="matrix(-.97437006 .22495105 -.22495105 -.97437006 2331.359655 1135.37512)"/><path d="m162.58762 645c3.608253 1.956838 5.41238 6.315894 5.41238 13.077169 0 10.984103-8.333333 22.625047-25 34.922831 9.45016-12.297784 14.17524-23.938728 14.17524-34.922831 0-6.761275 1.804127-11.120331 5.41238-13.077169z" transform="matrix(1 0 0 -1 0 1338)"/><path d="m170.631349 642c3.5791 1.962829 5.368651 6.335233 5.368651 13.11721 0 11.017736-7.333333 23.645332-22 37.88279 7.508465-14.237458 11.262697-26.865054 11.262697-37.88279 0-6.781977 1.789551-11.154381 5.368652-13.11721z" transform="matrix(.97437006 .22495105 .22495105 -.97437006 -145.925882 1280.775024)"/><path d="m603.752572 660c2.164952 1.141489 3.247428 3.684271 3.247428 7.628349 0 6.407393-5 13.197944-15 20.371651 5.670096-7.173707 8.505144-13.964258 8.505144-20.371651 0-3.944078 1.082476-6.48686 3.247428-7.628349z" transform="matrix(-1 0 0 -1 1199 1348)"/><path d="m597.827616 658c2.114923 1.154605 3.172384 3.726607 3.172384 7.716006 0 6.481021-4.333333 13.909019-12.999999 22.283994 4.43682-8.374975 6.65523-15.802973 6.65523-22.283994 0-3.989399 1.057462-6.561401 3.172385-7.716006z" transform="matrix(-.97437006 .22495105 -.22495105 -.97437006 1325.155063 1195.017652)"/><path d="m49.6779811 661.007204c6.4432934 7.570683 15.8781534 11.931988 25.8126028 11.931988h178.2764501c15.01045 0 29.417484-5.916485 40.104559-16.469596 10.687074-10.553111 25.094108-16.469596 40.104558-16.469596h160.314794c15.01045 0 29.417484 5.916485 40.104558 16.469596 10.687075 10.553111 25.094109 16.469596 40.104559 16.469596h276.811456c16.132144 0 32.024824 3.907584 46.321842 11.389302l9.141211 4.783652c14.297018 7.481716 30.189698 11.389302 46.321842 11.389302h150.689127c17.43741 0 34.54415-4.764918 49.47623-13.781128 14.93208-9.016211 32.03882-13.781128 49.47623-13.781128h76.23113c10.53987 0 20.62244-4.310169 27.91193-11.931988 7.28948-7.621819 17.37205-11.931987 27.91192-11.931987h64.20702v84.924783h-1399v-84.924783h23.8653782c9.9344495 0 19.3693094 4.361305 25.8126029 11.931987z"/></g><path d="m897 607.133 209.39 28.867 148.533-14.433 144.077-18.37v-79.197z" fill="#1ac885"/></g></svg>