<svg xmlns="http://www.w3.org/2000/svg" width="1400" height="724" viewBox="0 0 1399 722">
  <g fill="none" transform="translate(0 74)">
    <path fill="#65C8E6" d="M230.164403,376.335257 L312.718593,318.574561 C336.446589,301.972794 368.373997,303.350356 390.581128,321.934073 L502.637484,415.706821 L566.915005,364.526545 C589.900368,346.2247 622.403888,345.90318 645.747438,363.746746 L713.723349,415.706821 L962.797209,324.10042 C981.678762,317.15601 1002.72908,319.480272 1019.63724,330.376388 L1152.04961,415.706821 L1374.98213,415.706821 L1374.98213,572 L230.164403,572 L230.164403,376.335257 Z"/>
    <path fill="#71DCFD" d="M0,378.394325 L115.284469,312.455488 C136.599973,300.263737 163.015567,301.326032 183.281628,315.189973 L333.207903,417.754003 L425.388341,357.752869 C446.278021,344.155575 473.165887,343.906883 494.303884,357.115452 L591.345249,417.754003 L811.141069,313.948339 C827.196215,306.365779 845.681332,305.784456 862.181884,312.343202 L1127.37535,417.754003 L1236.29951,367.474717 C1253.26574,359.643118 1272.80905,359.607314 1289.80392,367.376696 L1400,417.754003 L1400,574 L0,574 L0,378.394325 Z"/>
    <polygon fill="#69A4D5" points="1107.834 176 1125.761 176 1134.811 575 1098.785 575"/>
    <g class="turbine-big" fill="#3073AB" transform="translate(890)">
	<g>
      <path d="M117.356616,28.5701012 C128.432901,37.1379003 133.971045,56.2235524 133.971045,85.8270565 C133.971045,133.919752 128.432901,192.530299 117.356616,261.658698 C106.280329,192.530299 100.742185,133.919752 100.742185,85.8270565 C100.742185,56.2235524 106.280329,37.1379003 117.356616,28.5701012 Z" transform="rotate(105 117.357 145.114)"/>
      <path d="M254.106293,164.981265 C265.18258,173.549065 270.720723,192.634716 270.720723,222.23822 C270.720723,270.330915 265.18258,328.941462 254.106293,398.069862 C243.030007,328.941462 237.491864,270.330915 237.491864,222.23822 C237.491864,192.634716 243.030007,173.549065 254.106293,164.981265 Z" transform="rotate(-15 254.106 281.526)"/>
      <path d="M304.396985,-21.6168537 C315.473272,-13.0490546 321.011415,6.03659699 321.011415,35.6401011 C321.011415,83.7327959 315.473272,142.343343 304.396985,211.471743 C293.320699,142.343343 287.782555,83.7327959 287.782555,35.6401011 C287.782555,6.03659699 293.320699,-13.0490546 304.396985,-21.6168537 Z" transform="rotate(-135 304.397 94.927)"/>
    </g>
    </g>
    <polygon fill="#69A4D5" points="875.644 328 883.612 328 887.634 543 871.623 543"/>
    <g class="turbine-small" fill="#3073AB" transform="translate(802.573 251)">
      <g>
	  <path d="M42.5037404,-9.24354715 C47.4504314,-5.41436316 49.9237773,3.11553702 49.9237773,16.3461533 C49.9237773,37.8400952 47.4504314,64.0347531 42.5037404,94.9301271 C37.5570493,64.0347531 35.0837038,37.8400952 35.0837038,16.3461533 C35.0837038,3.11553702 37.5570493,-5.41436316 42.5037404,-9.24354715 Z" transform="rotate(135 42.504 42.843)"/>
      <path d="M64.9497115,74.0700745 C69.8964028,77.8992584 72.3697485,86.4291586 72.3697485,99.6597749 C72.3697485,121.153717 69.8964028,147.348374 64.9497115,178.243748 C60.0030212,147.348374 57.5296755,121.153717 57.5296755,99.6597749 C57.5296755,86.4291586 60.0030212,77.8992584 64.9497115,74.0700745 Z" transform="rotate(15 64.95 126.157)"/>
      <path d="M126.097946,12.6840086 C130.959066,16.5452791 133.389626,25.146655 133.389626,38.4881367 C133.389626,60.1621857 130.959066,86.5763405 126.097946,117.730601 C121.236826,86.5763405 118.806265,60.1621857 118.806265,38.4881367 C118.806265,25.146655 121.236826,16.5452791 126.097946,12.6840086 Z" transform="rotate(-105 126.098 65.207)"/>
    </g>
    </g>
    <polygon fill="#1E7984" points="739.528 525 804.575 525 772.051 417"/>
    <polygon fill="#00566B" points="715.511 525 762.545 525 739.028 447"/>
    <polygon fill="#1E7984" points="1133.81 489.731 1171.313 489.731 1152.561 427.946"/>
    <polygon fill="#00566B" points="18.537 399.163 72.051 399.163 45.294 311"/>
    <path fill="#1AC885" d="M34.0243031,393 L200.475506,393 C223.913506,393 245.548975,405.567458 257.147268,425.919091 C268.74556,446.270725 290.38103,458.838183 313.819029,458.838183 L467.413453,458.838183 C478.010293,458.838183 488.304143,455.304872 496.664145,448.798034 C505.024147,442.291196 515.317997,438.757884 525.914837,438.757884 L619.718988,438.757884 C650.5895,438.757884 679.385628,454.288108 696.328012,480.074385 C713.270394,505.860663 742.066523,521.390886 772.937036,521.390886 L1068.66555,521.390886 C1080.20499,521.390886 1090.81655,515.072399 1096.30846,504.931341 C1101.80038,494.790282 1112.41192,488.471795 1123.95137,488.471795 L1235.34706,488.471795 C1265.88885,488.471795 1294.75881,474.535673 1313.74263,450.628655 C1332.74838,426.694006 1361.61835,412.757884 1392.16014,412.757884 L1400,412.757884 L1400,650 L34.0243031,650 L34.0243031,393 Z"/>
    <path fill="#1E7984" d="M995.456123,480.14883 C1000.88272,471.359754 1010.58823,465.504587 1021.65814,465.504587 C1029.91083,465.504587 1037.40523,468.758779 1042.93371,474.05677 C1047.69173,470.363339 1053.66333,468.165138 1060.14717,468.165138 C1062.24927,468.165138 1064.29753,468.39619 1066.26804,468.834339 C1072.7079,459.280979 1083.61303,453 1095.98178,453 C1108.55286,453 1119.61204,459.488145 1126.00795,469.305766 C1128.88188,468.561229 1131.89564,468.165138 1135.0017,468.165138 C1154.79261,468.165138 1170.83631,484.245919 1170.83631,504.082569 C1170.83631,523.919218 1154.79261,540 1135.0017,540 C1122.43062,540 1111.37144,533.511855 1104.97553,523.694234 C1102.1016,524.438771 1099.08784,524.834862 1095.98178,524.834862 C1088.87629,524.834862 1082.25382,522.762031 1076.68344,519.186755 C1072.04151,522.571904 1066.327,524.568807 1060.14717,524.568807 C1053.66333,524.568807 1047.69173,522.370606 1042.93371,518.677175 C1037.40523,523.975167 1029.91083,527.229358 1021.65814,527.229358 C1016.83647,527.229358 1012.27365,526.118532 1008.21052,524.138277 C1004.36409,526.760821 999.718538,528.293578 994.715816,528.293578 C981.448576,528.293578 970.693352,517.513498 970.693352,504.215596 C970.693352,490.917694 981.448576,480.137615 994.715816,480.137615 C994.963478,480.137615 995.210265,480.141371 995.456123,480.14883 Z"/>
    <path fill="#00566B" d="M1009.81789,498.023388 C1014.02302,491.241184 1021.55401,486.721569 1030.14483,486.721569 C1036.47941,486.721569 1042.23775,489.178921 1046.51137,493.188757 C1050.2122,490.289908 1054.88013,488.560784 1059.95354,488.560784 C1061.65666,488.560784 1063.31409,488.755642 1064.90458,489.124196 C1069.91421,481.805311 1078.35154,477 1087.91569,477 C1097.60429,477 1106.13655,481.931177 1111.12061,489.411166 C1113.31726,488.85587 1115.61813,488.560784 1117.98819,488.560784 C1133.35841,488.560784 1145.81844,500.971275 1145.81844,516.280392 C1145.81844,531.589509 1133.35841,544 1117.98819,544 C1108.29959,544 1099.76733,539.068823 1094.78327,531.588834 C1092.58661,532.14413 1090.28575,532.439216 1087.91569,532.439216 C1082.26114,532.439216 1077.00046,530.759544 1072.60916,527.873807 C1069.04318,530.416905 1064.67386,531.913725 1059.95354,531.913725 C1055.01843,531.913725 1050.46699,530.277585 1046.81615,527.520192 C1042.51351,531.701845 1036.63127,534.278431 1030.14483,534.278431 C1026.53471,534.278431 1023.11175,533.480298 1020.04411,532.051524 C1017.02859,534.119071 1013.37471,535.329412 1009.43701,535.329412 C999.09307,535.329412 990.707648,526.977328 990.707648,516.67451 C990.707648,506.371692 999.09307,498.019608 1009.43701,498.019608 C1009.56427,498.019608 1009.69124,498.020872 1009.81789,498.023388 Z"/>
    <polygon fill="#1E7984" points="359.257 489 406.29 489 382.773 411"/>
    <polygon fill="#00566B" points="402.287 489 436.312 489 419.3 433"/>
    <polygon fill="#00566B" points="1149.821 506.028 1192.328 506.028 1171.074 436"/>
    <polygon fill="#00566B" points="928.663 524.028 971.17 524.028 949.917 454"/>
    <path fill="#00566B" d="M269.839001,464.576471 C276.050971,464.576471 281.697858,466.997146 285.888765,470.947134 C289.517969,468.091551 294.095555,466.388235 299.070765,466.388235 C300.740923,466.388235 302.366272,466.580185 303.925977,466.943238 C308.838645,459.73359 317.112673,455 326.491711,455 C335.99279,455 344.359913,459.857577 349.247504,467.225925 C351.401643,466.678916 353.657975,466.388235 355.982164,466.388235 C371.0549,466.388235 383.273767,478.613495 383.273767,493.694118 C383.273767,508.77474 371.0549,521 355.982164,521 C346.481086,521 338.113962,516.142423 333.226373,508.774075 C331.072233,509.321084 328.815901,509.611765 326.491711,509.611765 C320.946606,509.611765 315.787751,507.957162 311.481442,505.114497 C307.984477,507.619638 303.699722,509.094118 299.070765,509.094118 C294.231174,509.094118 289.767824,507.482397 286.187652,504.766159 C281.968282,508.8854 276.199893,511.423529 269.839001,511.423529 C266.298754,511.423529 262.942044,510.637308 259.933777,509.229859 C256.976625,511.266547 253.393464,512.458824 249.531978,512.458824 C239.388242,512.458824 231.165118,504.231397 231.165118,494.082353 C231.165118,483.933308 239.388242,475.705882 249.531978,475.705882 C254.029226,469.028629 261.414457,464.576471 269.839001,464.576471 Z"/>
    <path fill="#4BDC98" d="M-4.54747351e-13,393 L156.399329,393 C185.596769,393 211.821914,410.849302 222.514326,437.999049 L224.670037,443.472745 C235.362449,470.622492 261.587593,488.471795 290.785035,488.471795 L425.76431,488.471795 C445.365627,488.471795 463.762713,479.021232 475.169663,463.092321 C486.565226,447.179311 504.992955,437.797886 524.574182,437.940836 L587.001943,438.396581 C617.92679,438.622343 646.698382,454.25757 663.696501,480.074385 L669.846895,489.41563 C682.988207,509.374711 705.293849,521.390886 729.202607,521.390886 L1206.04276,521.390886 C1219.16821,521.390886 1231.55255,515.31201 1239.57535,504.931341 C1247.59814,494.550671 1259.98248,488.471795 1273.10793,488.471795 L1297.73388,488.471795 C1317.26219,488.471795 1335.92962,480.439878 1349.34959,466.263431 L1400,412.757884 L1400,650 L-4.54747351e-13,650 L-4.54747351e-13,393 Z"/>
    <polygon fill="#00566B" points="1306.934 490.434 1369.454 490.434 1338.194 387.432"/>
    <polygon fill="#1E7984" points="77.055 393 109.078 393 93.066 341"/>
    <path fill="#091842" d="M1118.38647,594 C1121.9973,595.956838 1123.80272,600.315894 1123.80272,607.077169 C1123.80272,618.061272 1115.46343,629.702216 1098.78485,642 C1108.24176,629.702216 1112.97022,618.061272 1112.97022,607.077169 C1112.97022,600.315894 1114.77564,595.956838 1118.38647,594 Z" transform="rotate(-180 1111.294 618)"/>
    <path fill="#091842" d="M1107.42236,591 C1111.00402,592.962829 1112.79485,597.335233 1112.79485,604.11721 C1112.79485,615.134946 1105.45628,627.762542 1090.77913,642 C1098.29296,627.762542 1102.04988,615.134946 1102.04988,604.11721 C1102.04988,597.335233 1103.84071,592.962829 1107.42236,591 Z" transform="rotate(167 1101.787 616.5)"/>
    <path fill="#091842" d="M162.703837,561 C166.31467,562.956838 168.120086,567.315894 168.120086,574.077169 C168.120086,585.061272 159.780796,596.702216 143.102216,609 C152.559131,596.702216 157.287589,585.061272 157.287589,574.077169 C157.287589,567.315894 159.093005,562.956838 162.703837,561 Z" transform="matrix(1 0 0 -1 0 1170)"/>
    <path fill="#091842" d="M170.753315,558 C174.334974,559.962829 176.125804,564.335233 176.125804,571.11721 C176.125804,582.134946 168.787229,594.762542 154.110079,609 C161.623911,594.762542 165.380827,582.134946 165.380827,571.11721 C165.380827,564.335233 167.171656,559.962829 170.753315,558 Z" transform="scale(1 -1) rotate(-13 -4956.196 0)"/>
    <path fill="#091842" d="M604.184132,576 C606.350632,577.141489 607.433881,579.684271 607.433881,583.628349 C607.433881,590.035742 602.430307,596.826293 592.423159,604 C598.097308,596.826293 600.934383,590.035742 600.934383,583.628349 C600.934383,579.684271 602.017633,577.141489 604.184132,576 Z" transform="rotate(-180 599.929 590)"/>
    <path fill="#091842" d="M598.254941,574 C600.371376,575.154605 601.429593,577.726607 601.429593,581.716006 C601.429593,588.197027 597.093162,595.625025 588.420301,604 C592.860292,595.625025 595.080288,588.197027 595.080288,581.716006 C595.080288,577.726607 596.138506,575.154605 598.254941,574 Z" transform="rotate(167 594.925 589)"/>
    <path fill="#091842" d="M49.7134907,577.007204 C56.1613898,584.577887 65.6029938,588.939192 75.5445443,588.939192 L253.948426,588.939192 C268.969605,588.939192 283.386937,583.022707 294.081651,572.469596 C304.776364,561.916485 319.193696,556 334.214876,556 L494.644262,556 C509.665442,556 524.082774,561.916485 534.777487,572.469596 C545.472201,583.022707 559.889533,588.939192 574.910713,588.939192 L851.920032,588.939192 C868.063708,588.939192 883.967748,592.846776 898.274985,600.328494 L907.42273,605.112146 C921.729968,612.593862 937.634008,616.501448 953.777683,616.501448 L1104.57452,616.501448 C1122.0244,616.501448 1139.14336,611.73653 1154.08612,602.72032 C1169.02887,593.704109 1186.14784,588.939192 1203.59771,588.939192 L1279.88333,588.939192 C1290.43074,588.939192 1300.52051,584.629023 1307.81521,577.007204 C1315.1099,569.385385 1325.19968,565.075217 1335.74709,565.075217 L1400,565.075217 L1400,650 L-2.27373675e-13,650 L-2.27373675e-13,565.075217 L23.8824371,565.075217 C33.8239877,565.075217 43.2655916,569.436522 49.7134907,577.007204 Z"/>
    <polygon fill="#1AC885" points="897.641 523.133 1107.181 552 1255.82 537.567 1400 519.197 1400 440"/>
  </g>

  <style>
	.turbine-small > g {
		transform-origin: 78px 78px;
		animation: spin 50s linear infinite;
	}

	.turbine-big > g {
		transform-origin: 225px 173px;
		animation: spin 80s linear infinite;
	}

	@keyframes spin {
		from { transform: rotate(0deg); }
		to { transform: rotate(360deg); }
	}
</style>
</svg>
